<?xml version="1.0" encoding="iso-8859-1"?>
<!-- Generator: Adobe Illustrator 16.0.0, SVG Export Plug-In . SVG Version: 6.00 Build 0)  -->
<!DOCTYPE svg PUBLIC "-//W3C//DTD SVG 1.1//EN" "http://www.w3.org/Graphics/SVG/1.1/DTD/svg11.dtd">
<svg version="1.1" id="Capa_1" xmlns="http://www.w3.org/2000/svg" xmlns:xlink="http://www.w3.org/1999/xlink" x="0px" y="0px"
	 width="948.492px" height="948.492px" viewBox="0 0 948.492 948.492" style="enable-background:new 0 0 948.492 948.492;"
	 xml:space="preserve">
<g>
	<path d="M788.816,6.364c-27.908,7.865-44.156,36.865-36.291,64.772l22.875,81.167c-0.273-0.267-0.541-0.541-0.814-0.807
		c-44.713-43.515-98.953-76.187-158.944-95.463c-16.58-5.328-33.396-9.558-50.354-12.688c-4.846-0.895-9.703-1.699-14.57-2.414
		c-2.433-0.358-4.869-0.693-7.307-1.005c-17.066-2.188-34.238-3.276-51.422-3.263c-36.825,0.028-73.713,5.115-109.766,15.275
		c-0.007,0.002-0.013,0.004-0.02,0.006c-51.242,14.443-98.311,38.294-139.897,70.892c-22.82,17.887-26.819,50.887-8.932,73.707
		c17.887,22.821,50.886,26.819,73.707,8.933c30.759-24.11,65.623-41.765,103.624-52.474C467.683,136.942,527.441,137.98,583.52,156
		c1.712,0.55,3.416,1.114,5.115,1.693c44.158,15.057,83.933,39.961,116.523,72.822c1.553,1.566,3.085,3.157,4.604,4.759
		l-55.852,15.74c-27.908,7.865-44.156,36.865-36.291,64.772c6.522,23.147,27.584,38.273,50.504,38.272
		c4.714,0,9.508-0.64,14.269-1.981l188.854-53.223c13.402-3.777,24.754-12.723,31.561-24.87s8.508-26.5,4.73-39.902L853.589,42.655
		C845.724,14.747,816.723-1.502,788.816,6.364z"/>
	<path d="M885.68,329.368c-28.729,3.915-48.845,30.379-44.93,59.107c5.277,38.725,2.91,77.731-7.036,115.94
		c-1.397,5.371-2.938,10.688-4.618,15.943c-16.233,50.814-45.479,96.086-85.238,131.705
		c-37.805,33.867-83.166,57.464-132.176,68.933L626.3,664.84c7.305-28.06-9.521-56.728-37.581-64.032
		c-28.06-7.304-56.728,9.521-64.032,37.581l-49.429,189.883c-3.508,13.475-1.519,27.791,5.529,39.799
		c7.048,12.009,18.577,20.726,32.052,24.232l192.469,50.103c4.437,1.155,8.883,1.706,13.262,1.706
		c23.323,0,44.622-15.663,50.771-39.287c7.305-28.061-9.521-56.729-37.581-64.032l-81.607-21.244
		c60.562-16.553,116.549-46.976,163.768-89.278c12.971-11.62,25.113-23.998,36.38-37.056
		c40.237-46.633,69.302-101.934,85.028-162.348c13.414-51.529,16.597-104.207,9.461-156.569
		C940.873,345.567,914.413,325.453,885.68,329.368z"/>
	<path d="M132.149,398.233c-5.331,24.379-8.403,49.166-9.163,74.074c-0.438,14.344-0.113,28.727,0.978,43.093
		c0.364,4.789,0.812,9.574,1.347,14.357c1.335,11.958,3.204,23.892,5.609,35.768c15.8,78.026,54.017,149.135,110.52,205.637
		c37.65,37.649,81.47,67.059,130.241,87.409c6.608,2.757,13.456,4.062,20.195,4.062c20.551,0,40.065-12.146,48.473-32.297
		c11.165-26.759-1.476-57.503-28.234-68.668c-36.068-15.05-68.513-36.836-96.43-64.753c-41.858-41.859-70.164-94.5-81.854-152.23
		c-2.14-10.569-3.708-21.198-4.708-31.846c-0.333-3.549-0.603-7.101-0.81-10.652c-0.517-8.879-0.64-17.761-0.371-26.622
		c0.768-25.278,4.736-50.384,11.839-74.765l38.559,39.023c20.379,20.625,53.62,20.823,74.245,0.444s20.824-53.619,0.445-74.245
		l-129.914-131.48c-20.379-20.625-53.62-20.824-74.245-0.445L15.6,365.783c-20.625,20.379-20.824,53.62-0.445,74.245
		c10.271,10.394,23.805,15.6,37.347,15.6c13.33,0,26.667-5.046,36.898-15.155L132.149,398.233z"/>
</g>
<g>
</g>
<g>
</g>
<g>
</g>
<g>
</g>
<g>
</g>
<g>
</g>
<g>
</g>
<g>
</g>
<g>
</g>
<g>
</g>
<g>
</g>
<g>
</g>
<g>
</g>
<g>
</g>
<g>
</g>
</svg>
